<svg width="59" height="24" viewBox="0 0 59 24" fill="none" xmlns="http://www.w3.org/2000/svg">
<g clip-path="url(#clip0_6490_13896)">
<path d="M4.8457 9.20117C3.9043 9.20117 3.16016 9.51562 2.61328 10.1445C2.07031 10.7695 1.79883 11.627 1.79883 12.7168C1.79883 13.8379 2.06055 14.7051 2.58398 15.3184C3.11133 15.9277 3.86133 16.2324 4.83398 16.2324C5.43164 16.2324 6.11328 16.125 6.87891 15.9102V16.7832C6.28516 17.0059 5.55273 17.1172 4.68164 17.1172C3.41992 17.1172 2.44531 16.7344 1.75781 15.9688C1.07422 15.2031 0.732422 14.1152 0.732422 12.7051C0.732422 11.8223 0.896484 11.0488 1.22461 10.3848C1.55664 9.7207 2.0332 9.20898 2.6543 8.84961C3.2793 8.49023 4.01367 8.31055 4.85742 8.31055C5.75586 8.31055 6.54102 8.47461 7.21289 8.80273L6.79102 9.6582C6.14258 9.35352 5.49414 9.20117 4.8457 9.20117ZM9.57422 17H8.60156V7.88281H9.57422V17ZM17.1797 13.7832C17.1797 14.8301 16.916 15.6484 16.3887 16.2383C15.8613 16.8242 15.1328 17.1172 14.2031 17.1172C13.6289 17.1172 13.1191 16.9824 12.6738 16.7129C12.2285 16.4434 11.8848 16.0566 11.6426 15.5527C11.4004 15.0488 11.2793 14.459 11.2793 13.7832C11.2793 12.7363 11.541 11.9219 12.0645 11.3398C12.5879 10.7539 13.3145 10.4609 14.2441 10.4609C15.1426 10.4609 15.8555 10.7598 16.3828 11.3574C16.9141 11.9551 17.1797 12.7637 17.1797 13.7832ZM12.2871 13.7832C12.2871 14.6035 12.4512 15.2285 12.7793 15.6582C13.1074 16.0879 13.5898 16.3027 14.2266 16.3027C14.8633 16.3027 15.3457 16.0898 15.6738 15.6641C16.0059 15.2344 16.1719 14.6074 16.1719 13.7832C16.1719 12.9668 16.0059 12.3477 15.6738 11.9258C15.3457 11.5 14.8594 11.2871 14.2148 11.2871C13.5781 11.2871 13.0977 11.4961 12.7734 11.9141C12.4492 12.332 12.2871 12.9551 12.2871 13.7832ZM23.0332 15.248C23.0332 15.8457 22.8105 16.3066 22.3652 16.6309C21.9199 16.9551 21.2949 17.1172 20.4902 17.1172C19.6387 17.1172 18.9746 16.9824 18.498 16.7129V15.8105C18.8066 15.9668 19.1367 16.0898 19.4883 16.1797C19.8438 16.2695 20.1855 16.3145 20.5137 16.3145C21.0215 16.3145 21.4121 16.2344 21.6855 16.0742C21.959 15.9102 22.0957 15.6621 22.0957 15.3301C22.0957 15.0801 21.9863 14.8672 21.7676 14.6914C21.5527 14.5117 21.1309 14.3008 20.502 14.0586C19.9043 13.8359 19.4785 13.6426 19.2246 13.4785C18.9746 13.3105 18.7871 13.1211 18.6621 12.9102C18.541 12.6992 18.4805 12.4473 18.4805 12.1543C18.4805 11.6309 18.6934 11.2188 19.1191 10.918C19.5449 10.6133 20.1289 10.4609 20.8711 10.4609C21.5625 10.4609 22.2383 10.6016 22.8984 10.8828L22.5527 11.6738C21.9082 11.4082 21.3242 11.2754 20.8008 11.2754C20.3398 11.2754 19.9922 11.3477 19.7578 11.4922C19.5234 11.6367 19.4062 11.8359 19.4062 12.0898C19.4062 12.2617 19.4492 12.4082 19.5352 12.5293C19.625 12.6504 19.7676 12.7656 19.9629 12.875C20.1582 12.9844 20.5332 13.1426 21.0879 13.3496C21.8496 13.627 22.3633 13.9062 22.6289 14.1875C22.8984 14.4688 23.0332 14.8223 23.0332 15.248ZM27.334 17.1172C26.3848 17.1172 25.6348 16.8281 25.084 16.25C24.5371 15.6719 24.2637 14.8691 24.2637 13.8418C24.2637 12.8066 24.5176 11.9844 25.0254 11.375C25.5371 10.7656 26.2227 10.4609 27.082 10.4609C27.8867 10.4609 28.5234 10.7266 28.9922 11.2578C29.4609 11.7852 29.6953 12.4824 29.6953 13.3496V13.9648H25.2715C25.291 14.7188 25.4805 15.291 25.8398 15.6816C26.2031 16.0723 26.7129 16.2676 27.3691 16.2676C28.0605 16.2676 28.7441 16.123 29.4199 15.834V16.7012C29.0762 16.8496 28.75 16.9551 28.4414 17.0176C28.1367 17.084 27.7676 17.1172 27.334 17.1172ZM27.0703 11.2754C26.5547 11.2754 26.1426 11.4434 25.834 11.7793C25.5293 12.1152 25.3496 12.5801 25.2949 13.1738H28.6523C28.6523 12.5605 28.5156 12.0918 28.2422 11.7676C27.9688 11.4395 27.5781 11.2754 27.0703 11.2754Z" fill="#D1D1D1"/>
<path d="M53.3606 18.36L40.6406 5.63995" stroke="#151515" stroke-width="2.5" stroke-linecap="round" stroke-linejoin="bevel"/>
<path d="M53.3606 5.63995L40.6406 18.36" stroke="#151515" stroke-width="2.5" stroke-linecap="round" stroke-linejoin="bevel"/>
</g>
<defs>
<clipPath id="clip0_6490_13896">
<rect width="59" height="24" fill="white"/>
</clipPath>
</defs>
</svg>
