<svg width="89" height="16" viewBox="0 0 89 16" fill="none" xmlns="http://www.w3.org/2000/svg">
<g clip-path="url(#clip0_6490_13945)">
<path fill-rule="evenodd" clip-rule="evenodd" d="M7.8341 2.1266C7.88015 1.98057 7.97155 1.85303 8.09503 1.76249C8.21851 1.67195 8.36764 1.62314 8.52076 1.62314C8.67388 1.62314 8.82301 1.67195 8.94649 1.76249C9.06997 1.85303 9.16138 1.98057 9.20743 2.1266L10.4474 5.93993H14.4474C14.606 5.93394 14.7622 5.98003 14.8921 6.07116C15.0221 6.16229 15.1186 6.29345 15.167 6.44461C15.2153 6.59577 15.2129 6.7586 15.16 6.90824C15.1071 7.05787 15.0067 7.18608 14.8741 7.27327L11.6274 9.6266L12.8674 13.4466C12.9165 13.5921 12.9177 13.7495 12.871 13.8957C12.8242 14.042 12.7319 14.1695 12.6076 14.2596C12.4832 14.3497 12.3333 14.3977 12.1798 14.3965C12.0263 14.3954 11.8771 14.3452 11.7541 14.2533L8.50076 11.8733L5.2541 14.2333C5.1311 14.3252 4.98194 14.3754 4.82839 14.3765C4.67484 14.3777 4.52495 14.3297 4.40061 14.2396C4.27627 14.1495 4.18398 14.022 4.13723 13.8757C4.09049 13.7295 4.09172 13.5721 4.14076 13.4266L5.38076 9.6066L2.1341 7.25327C2.00148 7.16608 1.90106 7.03787 1.84818 6.88824C1.79529 6.7386 1.79284 6.57577 1.84121 6.42461C1.88958 6.27345 1.98611 6.14229 2.11604 6.05116C2.24597 5.96003 2.40217 5.91394 2.56076 5.91993H6.56076L7.8341 2.1266Z" fill="#151515"/>
<path fill-rule="evenodd" clip-rule="evenodd" d="M25.8341 2.1266C25.8801 1.98057 25.9715 1.85303 26.095 1.76249C26.2185 1.67195 26.3676 1.62314 26.5208 1.62314C26.6739 1.62314 26.823 1.67195 26.9465 1.76249C27.07 1.85303 27.1614 1.98057 27.2074 2.1266L28.4474 5.93993H32.4474C32.606 5.93394 32.7622 5.98003 32.8921 6.07116C33.0221 6.16229 33.1186 6.29345 33.167 6.44461C33.2153 6.59577 33.2129 6.7586 33.16 6.90824C33.1071 7.05787 33.0067 7.18608 32.8741 7.27327L29.6274 9.6266L30.8674 13.4466C30.9165 13.5921 30.9177 13.7495 30.871 13.8957C30.8242 14.042 30.7319 14.1695 30.6076 14.2596C30.4832 14.3497 30.3333 14.3977 30.1798 14.3965C30.0263 14.3954 29.8771 14.3452 29.7541 14.2533L26.5008 11.8733L23.2541 14.2333C23.1311 14.3252 22.9819 14.3754 22.8284 14.3765C22.6748 14.3777 22.525 14.3297 22.4006 14.2396C22.2763 14.1495 22.184 14.022 22.1372 13.8757C22.0905 13.7295 22.0917 13.5721 22.1408 13.4266L23.3808 9.6066L20.1341 7.25327C20.0015 7.16608 19.9011 7.03787 19.8482 6.88824C19.7953 6.7386 19.7928 6.57577 19.8412 6.42461C19.8896 6.27345 19.9861 6.14229 20.116 6.05116C20.246 5.96003 20.4022 5.91394 20.5608 5.91993H24.5608L25.8341 2.1266Z" fill="#151515"/>
<path fill-rule="evenodd" clip-rule="evenodd" d="M43.8341 2.1266C43.8801 1.98057 43.9715 1.85303 44.095 1.76249C44.2185 1.67195 44.3676 1.62314 44.5208 1.62314C44.6739 1.62314 44.823 1.67195 44.9465 1.76249C45.07 1.85303 45.1614 1.98057 45.2074 2.1266L46.4474 5.93993H50.4474C50.606 5.93394 50.7622 5.98003 50.8921 6.07116C51.0221 6.16229 51.1186 6.29345 51.167 6.44461C51.2153 6.59577 51.2129 6.7586 51.16 6.90824C51.1071 7.05787 51.0067 7.18608 50.8741 7.27327L47.6274 9.6266L48.8674 13.4466C48.9165 13.5921 48.9177 13.7495 48.871 13.8957C48.8242 14.042 48.7319 14.1695 48.6076 14.2596C48.4832 14.3497 48.3333 14.3977 48.1798 14.3965C48.0263 14.3954 47.8771 14.3452 47.7541 14.2533L44.5008 11.8733L41.2541 14.2333C41.1311 14.3252 40.9819 14.3754 40.8284 14.3765C40.6748 14.3777 40.525 14.3297 40.4006 14.2396C40.2763 14.1495 40.184 14.022 40.1372 13.8757C40.0905 13.7295 40.0917 13.5721 40.1408 13.4266L41.3808 9.6066L38.1341 7.25327C38.0015 7.16608 37.9011 7.03787 37.8482 6.88824C37.7953 6.7386 37.7928 6.57577 37.8412 6.42461C37.8896 6.27345 37.9861 6.14229 38.116 6.05116C38.246 5.96003 38.4022 5.91394 38.5608 5.91993H42.5608L43.8341 2.1266Z" fill="#151515"/>
<path fill-rule="evenodd" clip-rule="evenodd" d="M61.8341 2.1266C61.8801 1.98057 61.9715 1.85303 62.095 1.76249C62.2185 1.67195 62.3676 1.62314 62.5208 1.62314C62.6739 1.62314 62.823 1.67195 62.9465 1.76249C63.07 1.85303 63.1614 1.98057 63.2074 2.1266L64.4474 5.93993H68.4474C68.606 5.93394 68.7622 5.98003 68.8921 6.07116C69.0221 6.16229 69.1186 6.29345 69.167 6.44461C69.2153 6.59577 69.2129 6.7586 69.16 6.90824C69.1071 7.05787 69.0067 7.18608 68.8741 7.27327L65.6274 9.6266L66.8674 13.4466C66.9165 13.5921 66.9177 13.7495 66.871 13.8957C66.8242 14.042 66.7319 14.1695 66.6076 14.2596C66.4832 14.3497 66.3333 14.3977 66.1798 14.3965C66.0263 14.3954 65.8771 14.3452 65.7541 14.2533L62.5008 11.8733L59.2541 14.2333C59.1311 14.3252 58.9819 14.3754 58.8284 14.3765C58.6748 14.3777 58.525 14.3297 58.4006 14.2396C58.2763 14.1495 58.184 14.022 58.1372 13.8757C58.0905 13.7295 58.0917 13.5721 58.1408 13.4266L59.3808 9.6066L56.1341 7.25327C56.0015 7.16608 55.9011 7.03787 55.8482 6.88824C55.7953 6.7386 55.7928 6.57577 55.8412 6.42461C55.8896 6.27345 55.9861 6.14229 56.116 6.05116C56.246 5.96003 56.4022 5.91394 56.5608 5.91993H60.5608L61.8341 2.1266Z" fill="#151515"/>
<path fill-rule="evenodd" clip-rule="evenodd" d="M79.8341 2.1266C79.8801 1.98057 79.9715 1.85303 80.095 1.76249C80.2185 1.67195 80.3676 1.62314 80.5208 1.62314C80.6739 1.62314 80.823 1.67195 80.9465 1.76249C81.07 1.85303 81.1614 1.98057 81.2074 2.1266L82.4474 5.93993H86.4474C86.606 5.93394 86.7622 5.98003 86.8921 6.07116C87.0221 6.16229 87.1186 6.29345 87.167 6.44461C87.2153 6.59577 87.2129 6.7586 87.16 6.90824C87.1071 7.05787 87.0067 7.18608 86.8741 7.27327L83.6274 9.6266L84.8674 13.4466C84.9165 13.5921 84.9177 13.7495 84.871 13.8957C84.8242 14.042 84.7319 14.1695 84.6076 14.2596C84.4832 14.3497 84.3333 14.3977 84.1798 14.3965C84.0263 14.3954 83.8771 14.3452 83.7541 14.2533L80.5008 11.8733L77.2541 14.2333C77.1311 14.3252 76.9819 14.3754 76.8284 14.3765C76.6748 14.3777 76.525 14.3297 76.4006 14.2396C76.2763 14.1495 76.184 14.022 76.1372 13.8757C76.0905 13.7295 76.0917 13.5721 76.1408 13.4266L77.3808 9.6066L74.1341 7.25327C74.0015 7.16608 73.9011 7.03787 73.8482 6.88824C73.7953 6.7386 73.7928 6.57577 73.8412 6.42461C73.8896 6.27345 73.9861 6.14229 74.116 6.05116C74.246 5.96003 74.4022 5.91394 74.5608 5.91993H78.5608L79.8341 2.1266Z" stroke="#EBEBEB" stroke-width="1.5" stroke-linecap="round" stroke-linejoin="round"/>
</g>
<defs>
<clipPath id="clip0_6490_13945">
<rect width="88" height="16" fill="white" transform="translate(0.5)"/>
</clipPath>
</defs>
</svg>
